<svg xmlns="http://www.w3.org/2000/svg" width="470.594" height="281" viewBox="0 0 470.594 281">
  <g id="グループ_22" data-name="グループ 22" transform="translate(-582 -1000)">
    <g id="グループ_20" data-name="グループ 20" transform="translate(-12.407 -221)">
      <g id="グループ_19" data-name="グループ 19">
        <g id="グループ_18" data-name="グループ 18">
          <g id="グループ_17" data-name="グループ 17">
            <g id="楕円形_4" data-name="楕円形 4" transform="translate(626 1310)" fill="#fff" stroke="#86e26f" stroke-width="2">
              <circle cx="86.5" cy="86.5" r="86.5" stroke="none"/>
              <circle cx="86.5" cy="86.5" r="85.5" fill="none"/>
            </g>
            <path id="パス_3" data-name="パス 3" d="M594.407,1372.321H846.365l30.247,69.331h168.968" fill="none" stroke="#f0e23c" stroke-width="4"/>
            <g id="グループ_9" data-name="グループ 9" transform="translate(31 85)">
              <g id="楕円形_5" data-name="楕円形 5" transform="translate(580 1268)" fill="#fff" stroke="#707070" stroke-width="1">
                <circle cx="19" cy="19" r="19" stroke="none"/>
                <circle cx="19" cy="19" r="18.5" fill="none"/>
              </g>
              <text id="_38" data-name="38" transform="translate(588 1289)" font-size="20" font-family="Arial-BoldMT, Arial" font-weight="700"><tspan x="0" y="0">38</tspan></text>
              <text id="分" transform="translate(600 1300)" font-size="10" font-family="HiraginoSans-W6, Hiragino Sans"><tspan x="0" y="0">分</tspan></text>
            </g>
            <path id="パス_4" data-name="パス 4" d="M1051.948,1399.844H815.959" transform="translate(-6.369 20)" fill="none" stroke="#053dbc" stroke-width="4"/>
            <path id="パス_5" data-name="パス 5" d="M799.666,1447s-19.852,36.816-67.914,39.631" transform="translate(-1.514 -2.108)" fill="none" stroke="#053dbc" stroke-width="4"/>
            <g id="グループ_12" data-name="グループ 12" transform="translate(198 85)">
              <g id="楕円形_5-2" data-name="楕円形 5" transform="translate(580 1268)" fill="#fff" stroke="#707070" stroke-width="1">
                <circle cx="19" cy="19" r="19" stroke="none"/>
                <circle cx="19" cy="19" r="18.5" fill="none"/>
              </g>
              <text id="_25" data-name="25" transform="translate(588 1289)" font-size="20" font-family="Arial-BoldMT, Arial" font-weight="700"><tspan x="0" y="0">25</tspan></text>
              <text id="分-2" data-name="分" transform="translate(600 1300)" font-size="10" font-family="HiraginoSans-W6, Hiragino Sans"><tspan x="0" y="0">分</tspan></text>
            </g>
            <g id="グループ_11" data-name="グループ 11" transform="translate(200 141)">
              <g id="楕円形_5-3" data-name="楕円形 5" transform="translate(580 1268)" fill="#fff" stroke="#707070" stroke-width="1">
                <circle cx="19" cy="19" r="19" stroke="none"/>
                <circle cx="19" cy="19" r="18.5" fill="none"/>
              </g>
              <text id="_27" data-name="27" transform="translate(588 1289)" font-size="20" font-family="Arial-BoldMT, Arial" font-weight="700"><tspan x="0" y="0">27</tspan></text>
              <text id="分-3" data-name="分" transform="translate(600 1300)" font-size="10" font-family="HiraginoSans-W6, Hiragino Sans"><tspan x="0" y="0">分</tspan></text>
            </g>
            <g id="グループ_10" data-name="グループ 10" transform="translate(114 196)">
              <g id="楕円形_5-4" data-name="楕円形 5" transform="translate(580 1268)" fill="#fff" stroke="#707070" stroke-width="1">
                <circle cx="19" cy="19" r="19" stroke="none"/>
                <circle cx="19" cy="19" r="18.5" fill="none"/>
              </g>
              <text id="_37" data-name="37" transform="translate(588 1289)" font-size="20" font-family="Arial-BoldMT, Arial" font-weight="700"><tspan x="0" y="0">37</tspan></text>
              <text id="分-4" data-name="分" transform="translate(600 1300)" font-size="10" font-family="HiraginoSans-W6, Hiragino Sans"><tspan x="0" y="0">分</tspan></text>
            </g>
            <g id="グループ_13" data-name="グループ 13" transform="translate(447 141)">
              <g id="楕円形_5-5" data-name="楕円形 5" transform="translate(580 1268)" fill="#fff" stroke="#707070" stroke-width="1">
                <circle cx="19" cy="19" r="19" stroke="none"/>
                <circle cx="19" cy="19" r="18.5" fill="none"/>
              </g>
              <text id="_12" data-name="12" transform="translate(588 1289)" font-size="20" font-family="Arial-BoldMT, Arial" font-weight="700"><tspan x="0" y="0">12</tspan></text>
              <text id="分-5" data-name="分" transform="translate(600 1300)" font-size="10" font-family="HiraginoSans-W6, Hiragino Sans"><tspan x="0" y="0">分</tspan></text>
            </g>
            <text id="新宿" transform="translate(614 1410)" font-size="16" font-family="HiraMinProN-W6, Hiragino Mincho ProN"><tspan x="0" y="0">新宿</tspan></text>
            <text id="品川" transform="translate(697 1457)" font-size="16" font-family="HiraMinProN-W6, Hiragino Mincho ProN"><tspan x="0" y="0">品川</tspan></text>
            <text id="東京" transform="translate(744 1434)" font-size="16" font-family="HiraMinProN-W6, Hiragino Mincho ProN"><tspan x="0" y="0">東京</tspan></text>
            <path id="パス_6" data-name="パス 6" d="M594.407,1340h99.3l49.971,61.37h91.5l26.493,61.4H973.785" fill="none" stroke="#8ee9ff" stroke-width="2"/>
            <g id="グループ_14" data-name="グループ 14" transform="translate(121 85)">
              <g id="楕円形_5-6" data-name="楕円形 5" transform="translate(580 1268)" fill="#fff" stroke="#707070" stroke-width="1">
                <circle cx="19" cy="19" r="19" stroke="none"/>
                <circle cx="19" cy="19" r="18.5" fill="none"/>
              </g>
              <text id="_32" data-name="32" transform="translate(588 1289)" font-size="20" font-family="Arial-BoldMT, Arial" font-weight="700"><tspan x="0" y="0">32</tspan></text>
              <text id="分-6" data-name="分" transform="translate(600 1300)" font-size="10" font-family="HiraginoSans-W6, Hiragino Sans"><tspan x="0" y="0">分</tspan></text>
            </g>
            <text id="飯田橋" transform="translate(696 1410)" font-size="16" font-family="HiraMinProN-W6, Hiragino Mincho ProN"><tspan x="0" y="0">飯田橋</tspan></text>
            <g id="グループ_15" data-name="グループ 15" transform="translate(371.651 154)">
              <g id="楕円形_5-7" data-name="楕円形 5" transform="translate(574.349 1260)" fill="#fff" stroke="#707070" stroke-width="1">
                <circle cx="28" cy="28" r="28" stroke="none"/>
                <circle cx="28" cy="28" r="27.5" fill="none"/>
              </g>
            </g>
            <g id="グループ_16" data-name="グループ 16" transform="translate(378.945 160)">
              <g id="楕円形_5-8" data-name="楕円形 5" transform="translate(574.055 1261)" fill="#f50808" stroke="#707070" stroke-width="1">
                <circle cx="21" cy="21" r="21" stroke="none"/>
                <circle cx="21" cy="21" r="20.5" fill="none"/>
              </g>
            </g>
            <text id="津_田_沼" data-name="津
田
沼" transform="translate(962 1350)" fill="#f50808" font-size="24" font-family="HiraMinProN-W6, Hiragino Mincho ProN"><tspan x="0" y="0">津</tspan><tspan x="0" y="28">田</tspan><tspan x="0" y="56">沼</tspan></text>
            <g id="長方形_6" data-name="長方形 6" transform="translate(889 1416)" fill="#fff" stroke="#707070" stroke-width="1">
              <rect width="10" height="30" stroke="none"/>
              <rect x="0.5" y="0.5" width="9" height="29" fill="none"/>
            </g>
            <text id="錦糸町" transform="translate(876 1410)" font-size="12" font-family="HiraMinProN-W6, Hiragino Mincho ProN"><tspan x="0" y="0">錦糸町</tspan></text>
            <g id="長方形_7" data-name="長方形 7" transform="translate(923 1437)" fill="#fff" stroke="#707070" stroke-width="1">
              <rect width="10" height="30" stroke="none"/>
              <rect x="0.5" y="0.5" width="9" height="29" fill="none"/>
            </g>
            <text id="西船橋" transform="translate(910 1483)" font-size="12" font-family="HiraMinProN-W6, Hiragino Mincho ProN"><tspan x="0" y="0">西船橋</tspan></text>
            <text id="千葉" transform="translate(1030 1402)" font-size="16" font-family="HiraMinProN-W6, Hiragino Mincho ProN"><tspan x="0" y="0">千葉</tspan></text>
          </g>
          <path id="パス_7" data-name="パス 7" d="M694.726,1484.794H596.58" transform="translate(-1.142)" fill="none" stroke="#053dbc" stroke-width="4"/>
        </g>
        <text id="秋葉原" transform="translate(773 1346)" font-size="16" font-family="HiraMinProN-W6, Hiragino Mincho ProN"><tspan x="0" y="0">秋葉原</tspan></text>
      </g>
    </g>
    <g id="グループ_21" data-name="グループ 21" transform="translate(232.594 1)">
      <path id="パス_8" data-name="パス 8" d="M585.479,1005.94h27.545" fill="none" stroke="#f0e23c" stroke-width="4"/>
      <path id="パス_9" data-name="パス 9" d="M585.479,1005.94h27.545" transform="translate(157 32)" fill="none" stroke="#86e26f" stroke-width="4"/>
      <path id="パス_10" data-name="パス 10" d="M585.479,1005.94h27.545" transform="translate(157)" fill="none" stroke="#8ee9ff" stroke-width="4"/>
      <path id="パス_11" data-name="パス 11" d="M585.479,1005.94h27.545" transform="translate(0 32)" fill="none" stroke="#053dbc" stroke-width="4"/>
      <text id="総武線" transform="translate(621 1011)" font-size="14" font-family="HiraMinProN-W6, Hiragino Mincho ProN"><tspan x="0" y="0">総武線</tspan></text>
      <text id="総武線_快速_" data-name="総武線(快速)" transform="translate(621 1043)" font-size="14" font-family="HiraMinProN-W6, Hiragino Mincho ProN"><tspan x="0" y="0">総武線(快速)</tspan></text>
      <text id="東西線" transform="translate(778 1012)" font-size="14" font-family="HiraMinProN-W6, Hiragino Mincho ProN"><tspan x="0" y="0">東西線</tspan></text>
      <text id="山手線" transform="translate(778 1043)" font-size="14" font-family="HiraMinProN-W6, Hiragino Mincho ProN"><tspan x="0" y="0">山手線</tspan></text>
    </g>
  </g>
</svg>
