<!--?xml version="1.0" encoding="utf-8"?-->
<!-- Generator: Adobe Illustrator 18.0.0, SVG Export Plug-In . SVG Version: 6.00 Build 0)  -->

<svg version="1.1" id="_x31_0" xmlns="http://www.w3.org/2000/svg" xmlns:xlink="http://www.w3.org/1999/xlink" x="0px" y="0px" viewBox="0 0 512 512" style="width: 256px; height: 256px; opacity: 1;" xml:space="preserve">
<style type="text/css">
	.st0{fill:#374149;}
</style>
<g>
	<path class="st0" d="M190.782,311.816l118.355,46.086c1.793-7.18,4.32-14.184,7.527-20.871l-116.488-45.41
		C197.734,298.66,194.586,305.434,190.782,311.816z" style="fill: rgb(75, 75, 75);"></path>
	<path class="st0" d="M190.782,200.183c3.804,6.383,6.953,13.157,9.394,20.196l116.492-45.406
		c-3.211-6.692-5.738-13.695-7.531-20.879L190.782,200.183z" style="fill: rgb(75, 75, 75);"></path>
	<path class="st0" d="M97.07,158.93C43.543,158.93,0,202.473,0,256c0,53.523,43.543,97.07,97.07,97.07
		c53.523,0,97.07-43.547,97.07-97.07C194.141,202.473,150.594,158.93,97.07,158.93z M97.07,304.168
		c-26.562,0-48.168-21.61-48.168-48.168c0-26.562,21.606-48.168,48.168-48.168c26.558,0,48.168,21.606,48.168,48.168
		C145.238,282.558,123.629,304.168,97.07,304.168z" style="fill: rgb(75, 75, 75);"></path>
	<path class="st0" d="M414.93,224.703c53.527,0,97.07-43.547,97.07-97.07c0-53.527-43.543-97.07-97.07-97.07
		c-53.523,0-97.07,43.543-97.07,97.07C317.859,181.156,361.406,224.703,414.93,224.703z M414.93,79.465
		c26.562,0,48.168,21.606,48.168,48.168c0,26.558-21.606,48.168-48.168,48.168c-26.558,0-48.168-21.61-48.168-48.168
		C366.762,101.07,388.371,79.465,414.93,79.465z" style="fill: rgb(75, 75, 75);"></path>
	<path class="st0" d="M414.93,287.297c-53.523,0-97.07,43.543-97.07,97.07c0,53.523,43.547,97.07,97.07,97.07
		c53.527,0,97.07-43.547,97.07-97.07C512,330.84,468.457,287.297,414.93,287.297z M414.93,432.535
		c-26.558,0-48.168-21.61-48.168-48.168c0-26.562,21.61-48.168,48.168-48.168c26.562,0,48.168,21.606,48.168,48.168
		C463.098,410.926,441.492,432.535,414.93,432.535z" style="fill: rgb(75, 75, 75);"></path>
</g>
</svg>
